<?xml version="1.0" encoding="UTF-8"?>
<svg xmlns="http://www.w3.org/2000/svg" viewBox="0 0 900 520" font-family="'Segoe UI', 'Helvetica Neue', Arial, sans-serif">
  <defs>
    <linearGradient id="schemaBg" x1="0" y1="0" x2="0" y2="1">
      <stop offset="0%" stop-color="#818cf8"/>
      <stop offset="100%" stop-color="#6366f1"/>
    </linearGradient>
    <linearGradient id="engineBg" x1="0" y1="0" x2="0" y2="1">
      <stop offset="0%" stop-color="#334155"/>
      <stop offset="100%" stop-color="#1e293b"/>
    </linearGradient>
    <linearGradient id="pythonBg" x1="0" y1="0" x2="0" y2="1">
      <stop offset="0%" stop-color="#fbbf24"/>
      <stop offset="100%" stop-color="#f59e0b"/>
    </linearGradient>
    <linearGradient id="rustBg" x1="0" y1="0" x2="0" y2="1">
      <stop offset="0%" stop-color="#fb923c"/>
      <stop offset="100%" stop-color="#f97316"/>
    </linearGradient>
    <linearGradient id="cBg" x1="0" y1="0" x2="0" y2="1">
      <stop offset="0%" stop-color="#60a5fa"/>
      <stop offset="100%" stop-color="#3b82f6"/>
    </linearGradient>
    <linearGradient id="jsBg" x1="0" y1="0" x2="0" y2="1">
      <stop offset="0%" stop-color="#4ade80"/>
      <stop offset="100%" stop-color="#22c55e"/>
    </linearGradient>
    <linearGradient id="verilogBg" x1="0" y1="0" x2="0" y2="1">
      <stop offset="0%" stop-color="#c084fc"/>
      <stop offset="100%" stop-color="#a855f7"/>
    </linearGradient>
    <filter id="shadow" x="-4%" y="-4%" width="108%" height="116%">
      <feDropShadow dx="0" dy="2" stdDeviation="4" flood-color="#000" flood-opacity="0.10"/>
    </filter>
    <filter id="shadowSm" x="-4%" y="-4%" width="108%" height="116%">
      <feDropShadow dx="0" dy="1" stdDeviation="2" flood-color="#000" flood-opacity="0.08"/>
    </filter>
  </defs>

  <!-- Background -->
  <rect width="900" height="520" fill="#f8fafc" rx="6"/>

  <!-- ============ JSON SCHEMA (top) ============ -->
  <g filter="url(#shadow)">
    <rect x="320" y="28" width="260" height="70" rx="12" fill="url(#schemaBg)"/>
  </g>
  <text x="385" y="54" font-size="11" fill="#e0e7ff" font-weight="500" letter-spacing="1.5">ATOMiK OBJECT</text>
  <text x="450" y="78" text-anchor="middle" font-size="19" fill="#fff" font-weight="700">JSON Schema</text>
  <!-- small file icon -->
  <g transform="translate(355, 48)">
    <rect x="0" y="0" width="14" height="17" rx="2" fill="none" stroke="#e0e7ff" stroke-width="1.2"/>
    <polyline points="9,0 9,5 14,5" fill="none" stroke="#e0e7ff" stroke-width="1.2"/>
    <line x1="3" y1="9" x2="11" y2="9" stroke="#e0e7ff" stroke-width="1"/>
    <line x1="3" y1="12" x2="9" y2="12" stroke="#e0e7ff" stroke-width="1"/>
  </g>

  <!-- ============ CONNECTOR: Schema -> Engine ============ -->
  <line x1="450" y1="98" x2="450" y2="130" stroke="#94a3b8" stroke-width="2"/>
  <polygon points="445,126 450,136 455,126" fill="#94a3b8"/>

  <!-- ============ GENERATOR ENGINE ============ -->
  <g filter="url(#shadow)">
    <rect x="245" y="136" width="410" height="62" rx="10" fill="url(#engineBg)"/>
  </g>
  <!-- gear icon -->
  <g transform="translate(275, 158)">
    <circle cx="8" cy="8" r="4" fill="none" stroke="#94a3b8" stroke-width="1.2"/>
    <line x1="8" y1="1" x2="8" y2="4" stroke="#94a3b8" stroke-width="1.2"/>
    <line x1="8" y1="12" x2="8" y2="15" stroke="#94a3b8" stroke-width="1.2"/>
    <line x1="1" y1="8" x2="4" y2="8" stroke="#94a3b8" stroke-width="1.2"/>
    <line x1="12" y1="8" x2="15" y2="8" stroke="#94a3b8" stroke-width="1.2"/>
  </g>
  <text x="302" y="172" font-size="16" fill="#f1f5f9" font-weight="700">GeneratorEngine</text>
  <text x="490" y="168" font-size="10.5" fill="#94a3b8">Validate</text>
  <text x="490" y="182" font-size="10.5" fill="#94a3b8">Namespace Map</text>
  <text x="570" y="168" font-size="10.5" fill="#94a3b8">Emit</text>
  <text x="570" y="182" font-size="10.5" fill="#94a3b8">Write Output</text>
  <!-- separator dots -->
  <circle cx="483" cy="172" r="1.5" fill="#475569"/>
  <circle cx="558" cy="172" r="1.5" fill="#475569"/>

  <!-- ============ CONNECTOR LINES: Engine -> Generators ============ -->
  <!-- Vertical trunk -->
  <line x1="450" y1="198" x2="450" y2="226" stroke="#94a3b8" stroke-width="2"/>
  <!-- Horizontal rail -->
  <line x1="92" y1="226" x2="808" y2="226" stroke="#cbd5e1" stroke-width="1.5"/>
  <!-- Drops -->
  <line x1="92" y1="226" x2="92" y2="246" stroke="#cbd5e1" stroke-width="1.5"/>
  <line x1="272" y1="226" x2="272" y2="246" stroke="#cbd5e1" stroke-width="1.5"/>
  <line x1="450" y1="226" x2="450" y2="246" stroke="#cbd5e1" stroke-width="1.5"/>
  <line x1="628" y1="226" x2="628" y2="246" stroke="#cbd5e1" stroke-width="1.5"/>
  <line x1="808" y1="226" x2="808" y2="246" stroke="#cbd5e1" stroke-width="1.5"/>
  <!-- Arrowheads -->
  <polygon points="87,242 92,252 97,242" fill="#cbd5e1"/>
  <polygon points="267,242 272,252 277,242" fill="#cbd5e1"/>
  <polygon points="445,242 450,252 455,242" fill="#cbd5e1"/>
  <polygon points="623,242 628,252 633,242" fill="#cbd5e1"/>
  <polygon points="803,242 808,252 813,242" fill="#cbd5e1"/>

  <!-- ============ GENERATOR CARDS ============ -->

  <!-- Python -->
  <g filter="url(#shadowSm)">
    <rect x="22" y="252" width="140" height="54" rx="8" fill="url(#pythonBg)"/>
  </g>
  <text x="92" y="275" text-anchor="middle" font-size="14" fill="#78350f" font-weight="700">Python</text>
  <text x="92" y="293" text-anchor="middle" font-size="10.5" fill="#92400e">Class + type hints</text>

  <!-- Rust -->
  <g filter="url(#shadowSm)">
    <rect x="202" y="252" width="140" height="54" rx="8" fill="url(#rustBg)"/>
  </g>
  <text x="272" y="275" text-anchor="middle" font-size="14" fill="#7c2d12" font-weight="700">Rust</text>
  <text x="272" y="293" text-anchor="middle" font-size="10.5" fill="#9a3412">Struct + impl</text>

  <!-- C -->
  <g filter="url(#shadowSm)">
    <rect x="380" y="252" width="140" height="54" rx="8" fill="url(#cBg)"/>
  </g>
  <text x="450" y="275" text-anchor="middle" font-size="14" fill="#1e3a5f" font-weight="700">C</text>
  <text x="450" y="293" text-anchor="middle" font-size="10.5" fill="#1e40af">.h + .c pair</text>

  <!-- JavaScript -->
  <g filter="url(#shadowSm)">
    <rect x="558" y="252" width="140" height="54" rx="8" fill="url(#jsBg)"/>
  </g>
  <text x="628" y="275" text-anchor="middle" font-size="14" fill="#14532d" font-weight="700">JavaScript</text>
  <text x="628" y="293" text-anchor="middle" font-size="10.5" fill="#166534">ES module class</text>

  <!-- Verilog -->
  <g filter="url(#shadowSm)">
    <rect x="738" y="252" width="140" height="54" rx="8" fill="url(#verilogBg)"/>
  </g>
  <text x="808" y="275" text-anchor="middle" font-size="14" fill="#3b0764" font-weight="700">Verilog</text>
  <text x="808" y="293" text-anchor="middle" font-size="10.5" fill="#581c87">RTL module</text>

  <!-- ============ OUTPUT ARROWS ============ -->
  <line x1="92"  y1="306" x2="92"  y2="330" stroke="#d97706" stroke-width="1.5"/>
  <line x1="272" y1="306" x2="272" y2="330" stroke="#ea580c" stroke-width="1.5"/>
  <line x1="450" y1="306" x2="450" y2="330" stroke="#2563eb" stroke-width="1.5"/>
  <line x1="628" y1="306" x2="628" y2="330" stroke="#16a34a" stroke-width="1.5"/>
  <line x1="808" y1="306" x2="808" y2="330" stroke="#7c3aed" stroke-width="1.5"/>
  <polygon points="87,326 92,336 97,326" fill="#d97706"/>
  <polygon points="267,326 272,336 277,326" fill="#ea580c"/>
  <polygon points="445,326 450,336 455,326" fill="#2563eb"/>
  <polygon points="623,326 628,336 633,326" fill="#16a34a"/>
  <polygon points="803,326 808,336 813,326" fill="#7c3aed"/>

  <!-- ============ OUTPUT FILE CARDS ============ -->

  <!-- Python output -->
  <rect x="22" y="336" width="140" height="84" rx="6" fill="#fffbeb" stroke="#fbbf24" stroke-width="1.2"/>
  <text x="92" y="356" text-anchor="middle" font-size="10" fill="#92400e" font-weight="600">Generated</text>
  <text x="92" y="372" text-anchor="middle" font-size="9" fill="#78350f" font-family="Monaco, Consolas, monospace">module.py</text>
  <text x="92" y="386" text-anchor="middle" font-size="9" fill="#78350f" font-family="Monaco, Consolas, monospace">__init__.py</text>
  <text x="92" y="400" text-anchor="middle" font-size="9" fill="#78350f" font-family="Monaco, Consolas, monospace">test_module.py</text>

  <!-- Rust output -->
  <rect x="202" y="336" width="140" height="84" rx="6" fill="#fff7ed" stroke="#fb923c" stroke-width="1.2"/>
  <text x="272" y="356" text-anchor="middle" font-size="10" fill="#9a3412" font-weight="600">Generated</text>
  <text x="272" y="372" text-anchor="middle" font-size="9" fill="#7c2d12" font-family="Monaco, Consolas, monospace">module.rs + mod.rs</text>
  <text x="272" y="386" text-anchor="middle" font-size="9" fill="#7c2d12" font-family="Monaco, Consolas, monospace">lib.rs + Cargo.toml</text>
  <text x="272" y="400" text-anchor="middle" font-size="9" fill="#7c2d12" font-family="Monaco, Consolas, monospace">module_test.rs</text>

  <!-- C output -->
  <rect x="380" y="336" width="140" height="84" rx="6" fill="#eff6ff" stroke="#60a5fa" stroke-width="1.2"/>
  <text x="450" y="356" text-anchor="middle" font-size="10" fill="#1e40af" font-weight="600">Generated</text>
  <text x="450" y="372" text-anchor="middle" font-size="9" fill="#1e3a5f" font-family="Monaco, Consolas, monospace">module.h + .c</text>
  <text x="450" y="386" text-anchor="middle" font-size="9" fill="#1e3a5f" font-family="Monaco, Consolas, monospace">Makefile</text>
  <text x="450" y="400" text-anchor="middle" font-size="9" fill="#1e3a5f" font-family="Monaco, Consolas, monospace">test_module.c</text>

  <!-- JavaScript output -->
  <rect x="558" y="336" width="140" height="84" rx="6" fill="#f0fdf4" stroke="#4ade80" stroke-width="1.2"/>
  <text x="628" y="356" text-anchor="middle" font-size="10" fill="#166534" font-weight="600">Generated</text>
  <text x="628" y="372" text-anchor="middle" font-size="9" fill="#14532d" font-family="Monaco, Consolas, monospace">module.js + index.js</text>
  <text x="628" y="386" text-anchor="middle" font-size="9" fill="#14532d" font-family="Monaco, Consolas, monospace">package.json</text>
  <text x="628" y="400" text-anchor="middle" font-size="9" fill="#14532d" font-family="Monaco, Consolas, monospace">module.test.js</text>

  <!-- Verilog output -->
  <rect x="738" y="336" width="140" height="84" rx="6" fill="#faf5ff" stroke="#c084fc" stroke-width="1.2"/>
  <text x="808" y="356" text-anchor="middle" font-size="10" fill="#581c87" font-weight="600">Generated</text>
  <text x="808" y="372" text-anchor="middle" font-size="9" fill="#3b0764" font-family="Monaco, Consolas, monospace">module.v</text>
  <text x="808" y="386" text-anchor="middle" font-size="9" fill="#3b0764" font-family="Monaco, Consolas, monospace">tb_module.v</text>
  <text x="808" y="400" text-anchor="middle" font-size="9" fill="#3b0764" font-family="Monaco, Consolas, monospace">module.cst</text>

  <!-- ============ BOTTOM ANNOTATION ============ -->
  <rect x="170" y="444" width="560" height="56" rx="8" fill="#f1f5f9" stroke="#e2e8f0" stroke-width="1"/>
  <text x="450" y="467" text-anchor="middle" font-size="12" fill="#334155" font-weight="600">19 files per schema</text>
  <text x="450" y="486" text-anchor="middle" font-size="11" fill="#64748b">Core implementation + test suite + build config for each language</text>

</svg>
